<?xml version="1.0" standalone="no"?>
<!DOCTYPE svg PUBLIC "-//W3C//DTD SVG 20010904//EN"
 "http://www.w3.org/TR/2001/REC-SVG-20010904/DTD/svg10.dtd">
<svg version="1.0" xmlns="http://www.w3.org/2000/svg"
 width="128.000000pt" height="128.000000pt" viewBox="0 0 128.000000 128.000000"
 preserveAspectRatio="xMidYMid meet">
<metadata>
Created by potrace 1.11, written by Peter Selinger 2001-2013
</metadata>
<g transform="translate(0.000000,128.000000) scale(0.100000,-0.100000)"
fill="#000000" stroke="none">
<path d="M269 1116 c-1 0 -2 -218 -3 -484 -1 -327 2 -482 9 -483 14 -1 167 -1
186 0 14 1 16 24 16 191 0 105 2 193 5 195 3 3 49 4 101 3 l97 -3 -56 -100
c-30 -54 -65 -118 -79 -140 l-24 -41 89 -52 90 -51 17 27 c26 39 39 61 69 117
14 28 51 94 81 148 51 91 57 97 87 97 l31 0 2 61 c2 56 10 74 93 224 49 89 90
165 90 168 0 3 -40 27 -89 55 l-88 49 -34 -61 c-19 -34 -38 -69 -44 -78 -5
-10 -28 -51 -49 -90 -21 -40 -50 -90 -63 -110 l-23 -38 -150 0 c-83 0 -150 3
-151 8 0 4 -1 93 -2 199 l-1 191 -103 0 c-57 0 -104 -1 -104 -2z"/>
</g>
</svg>
